<svg width="56" height="52" viewBox="0 0 56 52" fill="none" xmlns="http://www.w3.org/2000/svg">
<rect x="0.122925" width="55.1955" height="52" rx="2" fill="white"/>
<g clip-path="url(#clip0_373_16)">
<rect width="33.9665" height="32" transform="translate(10.7374 10)" fill="white"/>
<path d="M41.5981 23.3886H40.4581V23.3333H27.7207V28.6666H35.7191C34.5522 31.7713 31.4167 34 27.7207 34C23.0312 34 19.2291 30.418 19.2291 26C19.2291 21.582 23.0312 18 27.7207 18C29.8853 18 31.8547 18.7693 33.3542 20.026L37.3573 16.2546C34.8296 14.0353 31.4485 12.6666 27.7207 12.6666C19.9049 12.6666 13.568 18.6366 13.568 26C13.568 33.3633 19.9049 39.3333 27.7207 39.3333C35.5365 39.3333 41.8734 33.3633 41.8734 26C41.8734 25.106 41.7757 24.2333 41.5981 23.3886Z" fill="#FFC107"/>
<path d="M15.2 19.794L19.8499 23.0066C21.1081 20.072 24.1551 18 27.7209 18C29.8856 18 31.8549 18.7693 33.3544 20.026L37.3575 16.2546C34.8298 14.0353 31.4487 12.6666 27.7209 12.6666C22.2849 12.6666 17.5706 15.558 15.2 19.794Z" fill="#FF3D00"/>
<path d="M27.7205 39.3333C31.3761 39.3333 34.6978 38.0153 37.2092 35.872L32.8289 32.38C31.3602 33.4322 29.5656 34.0013 27.7205 34C24.0394 34 20.9137 31.7886 19.7362 28.7026L15.121 32.0526C17.4633 36.3706 22.22 39.3333 27.7205 39.3333Z" fill="#4CAF50"/>
<path d="M41.5981 23.3887H40.4581V23.3334H27.7206V28.6667H35.719C35.1609 30.1443 34.1554 31.4355 32.8269 32.3807L32.8291 32.3794L37.2093 35.8714C36.8994 36.1367 41.8733 32.6667 41.8733 26C41.8733 25.106 41.7757 24.2334 41.5981 23.3887Z" fill="#1976D2"/>
</g>
<defs>
<clipPath id="clip0_373_16">
<rect width="33.9665" height="32" fill="white" transform="translate(10.7374 10)"/>
</clipPath>
</defs>
</svg>
