<svg width="31" height="30" viewBox="0 0 31 30" fill="none" xmlns="http://www.w3.org/2000/svg">
<path d="M22.1663 18.8679H20.8123L20.3324 18.4048C22.012 16.4494 23.0232 13.9108 23.0232 11.1492C23.0232 4.99142 18.0357 0 11.8827 0C5.72971 0 0.742188 4.99142 0.742188 11.1492C0.742188 17.307 5.72971 22.2985 11.8827 22.2985C14.6421 22.2985 17.1787 21.2864 19.1326 19.6055L19.5954 20.0858V21.4408L28.165 30L30.7188 27.4443L22.1663 18.8679ZM11.8827 18.8679C7.61503 18.8679 4.17004 15.4202 4.17004 11.1492C4.17004 6.87822 7.61503 3.43053 11.8827 3.43053C16.1504 3.43053 19.5954 6.87822 19.5954 11.1492C19.5954 15.4202 16.1504 18.8679 11.8827 18.8679Z" fill="black"/>
</svg>
